<?xml version="1.0" encoding="UTF-8"?><svg id="b" xmlns="http://www.w3.org/2000/svg" viewBox="0 0 715.53 211.02"><g id="c"><g><g><path d="m43.68,86.91c0-8.39,2.28-14.53,6.84-18.44,4.56-3.9,10.12-5.85,16.69-5.85h0v-19.48h0c-12.77,0-23.38,4.12-31.84,12.36-9.05,8.9-13.57,19.37-13.57,31.4v80.97h21.88v-80.97Z" style="fill:#3689b2;"/><path d="m112.62,86.91c0-12.18-4.53-22.65-13.57-31.4-8.61-8.24-19.22-12.36-31.84-12.36v19.48c6.56,0,12.13,1.95,16.68,5.85,4.56,3.9,6.84,10.05,6.84,18.44v18.6h21.89v-18.6Z" style="fill:#3689b2;"/><path d="m90.73,105.51v18.6c0,8.39-2.28,14.54-6.84,18.44-4.56,3.9-10.12,5.85-16.68,5.85v19.48c12.76,0,23.38-4.12,31.84-12.36,9.05-8.9,13.57-19.37,13.57-31.4v-18.6h-21.89Z" style="fill:#3689b2;"/></g><path d="m43.59,95.55v19.91H0s0-19.91,0-19.91h9.66s33.93,0,33.93,0Z" style="fill:#3689b2;"/></g><g><path d="m119.05,142.55c-4.56-3.9-6.84-10.05-6.84-18.44v-18.6h-21.88v18.6c0,12.18,4.52,22.65,13.57,31.4,8.61,8.24,19.22,12.36,31.84,12.36h0v-19.48h0c-6.57,0-12.13-1.95-16.69-5.85Z"/><path d="m112.21,86.91c0-8.39,2.28-14.53,6.84-18.44,4.56-3.9,10.12-5.85,16.69-5.85h0v-19.48h0c-12.77,0-23.38,4.12-31.84,12.36-9.05,8.9-13.57,19.37-13.57,31.4v18.6h21.88v-18.6Z" style="fill:#3689b2;"/><path d="m181.15,86.91c0-12.18-4.53-22.65-13.57-31.4-8.61-8.24-19.22-12.36-31.84-12.36v19.48c6.56,0,12.13,1.95,16.68,5.85,4.56,3.9,6.84,10.05,6.84,18.44v18.6h21.89v-18.6Z"/><path d="m159.26,105.51v18.6c0,8.39-2.28,14.54-6.84,18.44-4.56,3.9-10.12,5.85-16.68,5.85v19.48c12.76,0,23.38-4.12,31.84-12.36,9.05-8.9,13.57-19.37,13.57-31.4v-18.6h-21.89Z"/><path d="m146.93,43.77c0-8.39,2.28-14.53,6.84-18.44,4.56-3.9,10.12-5.85,16.69-5.85h0V0h0c-12.77,0-23.38,4.12-31.84,12.36-9.05,8.9-13.57,19.37-13.57,31.4v18.6h21.88v-18.6Z"/></g><g><g><path d="m221.45,68.47c4.56,3.9,6.84,10.05,6.84,18.44v18.6h21.88v-18.6c0-12.18-4.52-22.65-13.57-31.4-8.61-8.24-19.22-12.36-31.84-12.36h0v19.48h0c6.57,0,12.13,1.95,16.69,5.85Z" style="fill:#c1272d;"/><path d="m228.29,124.11c0,8.39-2.28,14.53-6.84,18.44-4.56,3.9-10.12,5.85-16.69,5.85h0v19.48h0c12.77,0,23.38-4.12,31.84-12.36,9.05-8.9,13.57-19.37,13.57-31.4v-18.6h-21.88v18.6Z"/><path d="m159.35,124.11c0,12.18,4.53,22.65,13.57,31.4,8.61,8.24,19.22,12.36,31.84,12.36v-19.48c-6.56,0-12.13-1.95-16.68-5.85-4.56-3.9-6.84-10.05-6.84-18.44v-18.6h-21.89v18.6Z"/><path d="m181.24,105.51v-18.6c0-8.39,2.28-14.54,6.84-18.44,4.56-3.9,10.12-5.85,16.68-5.85v-19.48c-12.76,0-23.38,4.12-31.84,12.36-9.05,8.9-13.57,19.37-13.57,31.4v18.6h21.89Z"/></g><path d="m193.58,167.25c0,8.39-2.28,14.53-6.84,18.44-4.56,3.9-10.12,5.85-16.69,5.85h0v19.48h0c12.77,0,23.38-4.12,31.84-12.36,9.05-8.9,13.57-19.37,13.57-31.4v-18.6h-21.88v18.6Z"/></g><g><path d="m257.13,142.55c-4.56-3.9-6.84-10.05-6.84-18.44v-18.6h-21.88v18.6c0,12.18,4.52,22.65,13.57,31.4,8.61,8.24,19.22,12.36,31.84,12.36h0v-19.48h0c-6.57,0-12.13-1.95-16.69-5.85Z" style="fill:#c1272d;"/><path d="m250.29,86.91c0-8.39,2.28-14.53,6.84-18.44,4.56-3.9,10.12-5.85,16.69-5.85h0v-19.48h0c-12.77,0-23.38,4.12-31.84,12.36-9.05,8.9-13.57,19.37-13.57,31.4v18.6h21.88v-18.6Z" style="fill:#c1272d;"/><path d="m319.23,86.91c0-12.18-4.53-22.65-13.57-31.4-8.61-8.24-19.22-12.36-31.84-12.36v19.48c6.56,0,12.13,1.95,16.68,5.85,4.56,3.9,6.84,10.05,6.84,18.44v80.97h21.89v-80.97Z" style="fill:#c1272d;"/><path d="m341.02,94.41v19.91h-43.59s0-19.91,0-19.91h9.66s33.93,0,33.93,0Z" style="fill:#c1272d;"/></g><g><path d="m368.74,112.19v14.58c0,.52-.12.94-.35,1.26-.23.32-.52.53-.87.64-.35.1-.7.1-1.04,0-.35-.1-.64-.32-.87-.64-.23-.32-.35-.74-.35-1.26v-8.43c0-1.42.21-2.71.64-3.89.42-1.17,1.02-2.19,1.8-3.06.77-.86,1.68-1.53,2.71-2.01,1.03-.48,2.14-.72,3.33-.72.93,0,1.8.15,2.63.46.83.31,1.56.79,2.21,1.45.64.66,1.15,1.48,1.51,2.48.36.99.54,2.17.54,3.54v10.17c0,.52-.12.94-.35,1.26-.23.32-.52.53-.87.64-.35.1-.7.1-1.04,0-.35-.1-.64-.32-.87-.64-.23-.32-.35-.74-.35-1.26v-8.43c0-1.42.21-2.71.64-3.89.43-1.17,1.03-2.19,1.8-3.06.77-.86,1.68-1.53,2.71-2.01,1.03-.48,2.14-.72,3.33-.72.93,0,1.8.15,2.63.46.83.31,1.56.79,2.21,1.45s1.15,1.48,1.51,2.48c.36.99.54,2.17.54,3.54v10.17c0,.65-.17,1.14-.52,1.47-.35.33-.75.5-1.22.5s-.87-.17-1.22-.5c-.35-.33-.52-.83-.52-1.47v-10.17c0-1.06-.13-1.91-.41-2.55-.27-.64-.66-1.12-1.16-1.43s-1.12-.46-1.84-.46-1.43.12-2.05.35c-.62.23-1.15.57-1.59,1.02s-.77,1.01-1,1.68c-.23.67-.35,1.46-.35,2.36v9.21c0,.52-.12.94-.35,1.26-.23.32-.52.53-.87.64-.35.1-.7.1-1.04,0-.35-.1-.64-.32-.87-.64-.23-.32-.35-.74-.35-1.26v-10.17c0-1.06-.13-1.91-.41-2.55-.27-.64-.66-1.12-1.16-1.43s-1.12-.46-1.84-.46-1.43.12-2.05.35c-.62.23-1.15.57-1.59,1.02s-.77,1.01-1,1.68c-.23.67-.35,1.46-.35,2.36v9.21c0,.52-.12.94-.35,1.26-.23.32-.52.53-.87.64-.35.1-.7.1-1.04,0-.35-.1-.64-.32-.87-.64-.23-.32-.35-.74-.35-1.26v-16.17c0-.64.17-1.13.52-1.45.35-.32.75-.48,1.22-.48s.87.16,1.22.48c.35.32.52.81.52,1.45v1.59Z" style="fill:#3689b2;"/><path d="m403.71,116.95h5.22c.31,0,.59,0,.83.02.25.01.44,0,.58-.04s.25-.11.31-.21c.06-.1.07-.28.02-.54-.18-.82-.5-1.54-.95-2.15-.45-.61-1.03-1.07-1.72-1.39-.7-.32-1.48-.48-2.36-.48-1.16,0-2.19.27-3.08.81s-1.59,1.31-2.09,2.3-.75,2.15-.75,3.46c0,1.39.27,2.58.81,3.56.54.98,1.28,1.72,2.22,2.22s2.02.75,3.23.75c.54,0,1.11-.06,1.7-.17.59-.12,1.19-.29,1.8-.52.61-.23,1.22-.52,1.84-.85.57-.33,1.08-.43,1.53-.27.45.15.79.43,1.03.83.23.4.29.83.17,1.3-.12.46-.46.85-1.03,1.16-.8.46-1.6.84-2.4,1.14-.8.3-1.59.52-2.38.66-.79.14-1.54.21-2.26.21-1.8,0-3.44-.4-4.91-1.2-1.47-.8-2.64-1.95-3.52-3.44-.88-1.5-1.31-3.29-1.31-5.38s.41-3.77,1.24-5.28c.83-1.51,1.95-2.68,3.37-3.52,1.42-.84,3.02-1.26,4.8-1.26,1.42,0,2.72.28,3.91.85,1.19.57,2.17,1.36,2.96,2.38.79,1.02,1.31,2.24,1.57,3.66.15.8.18,1.51.08,2.13-.1.62-.36,1.13-.77,1.53-.41.4-.99.7-1.72.91-.73.21-1.64.31-2.73.31h-7.62c-.65,0-1.14-.17-1.47-.52s-.5-.75-.5-1.22.17-.87.5-1.22.83-.52,1.47-.52h2.4Z"/><path d="m436.01,102.83v16.32c0,1.47-.23,2.79-.7,3.96-.46,1.17-1.12,2.18-1.95,3.02-.84.84-1.82,1.48-2.94,1.93-1.12.45-2.34.68-3.66.68s-2.54-.25-3.67-.73c-1.14-.49-2.13-1.19-2.98-2.09-.85-.9-1.51-1.97-1.97-3.19-.46-1.22-.7-2.57-.7-4.04,0-1.96.41-3.69,1.22-5.2.81-1.51,1.92-2.69,3.33-3.54,1.41-.85,2.98-1.28,4.74-1.28,1.32,0,2.53.24,3.66.72,1.12.48,2.1,1.16,2.94,2.05s1.5,1.94,1.97,3.15c.48,1.21.71,2.55.71,4.02v8.59c0,.64-.17,1.13-.52,1.47-.35.33-.75.5-1.22.5s-.87-.16-1.22-.48c-.35-.32-.52-.82-.52-1.49v-8.59c0-1.26-.25-2.38-.73-3.37-.49-.98-1.17-1.74-2.05-2.28-.88-.54-1.88-.81-3.02-.81-.85,0-1.64.16-2.36.48-.72.32-1.33.77-1.84,1.35-.5.58-.9,1.27-1.18,2.07s-.42,1.68-.42,2.63c0,1.26.24,2.39.73,3.38.49.99,1.17,1.77,2.05,2.34.88.57,1.9.85,3.06.85.85,0,1.63-.14,2.34-.41.71-.27,1.32-.67,1.84-1.2.52-.53.91-1.17,1.18-1.93.27-.76.41-1.62.41-2.57v-17.75c0-.64.17-1.13.52-1.45.35-.32.75-.48,1.22-.48s.87.16,1.22.48c.35.32.52.81.52,1.45v1.43Z"/><path d="m441.23,103.02v-1.2c0-.59.17-1.04.52-1.33.35-.3.75-.44,1.22-.44s.87.15,1.22.44c.35.3.52.74.52,1.33v1.9c0,.59-.17,1.04-.52,1.33-.35.3-.75.44-1.22.44s-.87-.15-1.22-.44c-.35-.3-.52-.74-.52-1.33v-.7Zm0,22.09v-14.51c0-.64.17-1.13.52-1.45.35-.32.75-.48,1.22-.48s.87.16,1.22.48c.35.32.52.81.52,1.45v16.17c0,.65-.17,1.14-.52,1.47-.35.33-.75.5-1.22.5s-.87-.16-1.22-.48c-.35-.32-.52-.82-.52-1.49v-1.66Z"/><path d="m467.53,112.69v6.85c0,1.47-.23,2.77-.7,3.91-.46,1.14-1.12,2.1-1.95,2.88-.84.79-1.82,1.39-2.94,1.8-1.12.41-2.34.62-3.66.62s-2.54-.25-3.67-.73c-1.14-.49-2.13-1.19-2.98-2.09-.85-.9-1.51-1.97-1.97-3.19-.46-1.22-.7-2.57-.7-4.04,0-1.96.41-3.69,1.22-5.2.81-1.51,1.92-2.69,3.33-3.54,1.41-.85,2.98-1.28,4.74-1.28,1.32,0,2.53.24,3.66.72,1.12.48,2.1,1.16,2.94,2.05s1.5,1.94,1.97,3.15c.48,1.21.71,2.55.71,4.02v8.59c0,.64-.17,1.13-.52,1.47-.35.33-.75.5-1.22.5s-.87-.17-1.22-.5c-.35-.34-.52-.83-.52-1.47v-8.59c0-1.26-.25-2.38-.73-3.37-.49-.98-1.17-1.74-2.05-2.28-.88-.54-1.88-.81-3.02-.81-.85,0-1.64.16-2.36.48-.72.32-1.33.77-1.84,1.35-.5.58-.9,1.27-1.18,2.07s-.42,1.68-.42,2.63.14,1.83.42,2.63c.28.8.68,1.5,1.2,2.09.52.59,1.13,1.05,1.86,1.37.72.32,1.51.48,2.36.48s1.63-.12,2.34-.35c.71-.23,1.32-.59,1.84-1.06.52-.48.91-1.08,1.18-1.8.27-.72.41-1.56.41-2.51v-8.7c0-.64.17-1.13.52-1.47.35-.33.75-.5,1.22-.5s.87.17,1.22.5c.35.34.52.83.52,1.47v1.86Z"/><path d="m473.49,112.23v-1.28c0-.64.17-1.13.52-1.45.35-.32.75-.48,1.22-.48s.87.16,1.22.48c.35.32.52.81.52,1.45v2.09c0,.64-.17,1.13-.52,1.47-.35.34-.75.5-1.22.5s-.87-.17-1.22-.5c-.35-.33-.52-.83-.52-1.47v-.81Zm0,13.89v-1.28c0-.64.17-1.13.52-1.45.35-.32.75-.48,1.22-.48s.87.16,1.22.48c.35.32.52.81.52,1.45v2.09c0,.65-.17,1.14-.52,1.47-.35.33-.75.5-1.22.5s-.87-.17-1.22-.5c-.35-.33-.52-.82-.52-1.47v-.81Z"/></g><g><path d="m489.98,131.38c1.16.1,2.26,0,3.31-.33,1.04-.32,1.89-.86,2.53-1.62.64-.76.97-1.76.97-3v-8.94c0-1.06-.23-1.99-.68-2.79-.45-.8-1.07-1.42-1.86-1.88-.79-.45-1.7-.68-2.73-.68-.77,0-1.48.14-2.11.41-.63.27-1.18.65-1.64,1.12-.46.48-.83,1.04-1.08,1.7-.26.66-.39,1.39-.39,2.19s.13,1.54.39,2.22c.26.68.62,1.26,1.08,1.74.46.48,1.02.85,1.66,1.12.64.27,1.35.41,2.13.41s1.48-.13,2.13-.39c.64-.26,1.19-.63,1.64-1.12.45-.49.81-1.06,1.06-1.72.26-.66.39-1.39.39-2.19v-7.04c0-.67.17-1.17.52-1.49.35-.32.75-.48,1.22-.48s.87.17,1.22.5c.35.34.52.83.52,1.47v7.04c0,1.29-.22,2.48-.66,3.56s-1.05,2.02-1.84,2.82c-.79.8-1.71,1.42-2.77,1.86-1.06.44-2.21.66-3.44.66s-2.38-.22-3.44-.66c-1.06-.44-1.99-1.06-2.79-1.88-.8-.81-1.42-1.77-1.86-2.86-.44-1.1-.66-2.29-.66-3.58,0-1.7.39-3.22,1.16-4.56.77-1.34,1.82-2.4,3.13-3.17,1.32-.77,2.79-1.16,4.41-1.16s3.17.38,4.49,1.14c1.31.76,2.35,1.81,3.11,3.13s1.14,2.84,1.14,4.54v8.94c0,1.52-.31,2.85-.93,3.98-.62,1.13-1.46,2.06-2.51,2.77-1.06.71-2.24,1.2-3.56,1.47-1.31.27-2.68.32-4.08.15-1.41-.17-2.77-.56-4.08-1.18-.57-.28-.92-.66-1.06-1.12-.14-.46-.12-.9.08-1.32.19-.41.52-.71.97-.89.45-.18.97-.13,1.57.15,1.06.52,2.17.83,3.33.93Z" style="fill:#333;"/><path d="m522.9,112.69v6.85c0,1.47-.23,2.77-.7,3.91-.46,1.14-1.12,2.1-1.95,2.88-.84.79-1.82,1.39-2.94,1.8-1.12.41-2.34.62-3.66.62s-2.54-.25-3.67-.73c-1.14-.49-2.13-1.19-2.98-2.09-.85-.9-1.51-1.97-1.97-3.19-.46-1.22-.7-2.57-.7-4.04,0-1.96.41-3.69,1.22-5.2.81-1.51,1.92-2.69,3.33-3.54,1.41-.85,2.98-1.28,4.74-1.28,1.32,0,2.53.24,3.66.72,1.12.48,2.1,1.16,2.94,2.05s1.5,1.94,1.97,3.15c.48,1.21.71,2.55.71,4.02v8.59c0,.64-.17,1.13-.52,1.47-.35.33-.75.5-1.22.5s-.87-.17-1.22-.5c-.35-.34-.52-.83-.52-1.47v-8.59c0-1.26-.25-2.38-.73-3.37-.49-.98-1.17-1.74-2.05-2.28-.88-.54-1.88-.81-3.02-.81-.85,0-1.64.16-2.36.48-.72.32-1.33.77-1.84,1.35-.5.58-.9,1.27-1.18,2.07s-.42,1.68-.42,2.63.14,1.83.42,2.63c.28.8.68,1.5,1.2,2.09.52.59,1.13,1.05,1.86,1.37.72.32,1.51.48,2.36.48s1.63-.12,2.34-.35c.71-.23,1.32-.59,1.84-1.06.52-.48.91-1.08,1.18-1.8.27-.72.41-1.56.41-2.51v-8.7c0-.64.17-1.13.52-1.47.35-.33.75-.5,1.22-.5s.87.17,1.22.5c.35.34.52.83.52,1.47v1.86Z"/><path d="m531.45,112.19v14.58c0,.52-.12.94-.35,1.26-.23.32-.52.53-.87.64-.35.1-.7.1-1.04,0-.35-.1-.64-.32-.87-.64-.23-.32-.35-.74-.35-1.26v-8.43c0-1.42.21-2.71.64-3.89.42-1.17,1.02-2.19,1.8-3.06.77-.86,1.68-1.53,2.71-2.01,1.03-.48,2.14-.72,3.33-.72.93,0,1.8.15,2.63.46.83.31,1.56.79,2.21,1.45.64.66,1.15,1.48,1.51,2.48.36.99.54,2.17.54,3.54v10.17c0,.52-.12.94-.35,1.26-.23.32-.52.53-.87.64-.35.1-.7.1-1.04,0-.35-.1-.64-.32-.87-.64-.23-.32-.35-.74-.35-1.26v-8.43c0-1.42.21-2.71.64-3.89.43-1.17,1.03-2.19,1.8-3.06.77-.86,1.68-1.53,2.71-2.01,1.03-.48,2.14-.72,3.33-.72.93,0,1.8.15,2.63.46.83.31,1.56.79,2.21,1.45s1.15,1.48,1.51,2.48c.36.99.54,2.17.54,3.54v10.17c0,.65-.17,1.14-.52,1.47-.35.33-.75.5-1.22.5s-.87-.17-1.22-.5c-.35-.33-.52-.83-.52-1.47v-10.17c0-1.06-.13-1.91-.41-2.55-.27-.64-.66-1.12-1.16-1.43s-1.12-.46-1.84-.46-1.43.12-2.05.35c-.62.23-1.15.57-1.59,1.02s-.77,1.01-1,1.68c-.23.67-.35,1.46-.35,2.36v9.21c0,.52-.12.94-.35,1.26-.23.32-.52.53-.87.64-.35.1-.7.1-1.04,0-.35-.1-.64-.32-.87-.64-.23-.32-.35-.74-.35-1.26v-10.17c0-1.06-.13-1.91-.41-2.55-.27-.64-.66-1.12-1.16-1.43s-1.12-.46-1.84-.46-1.43.12-2.05.35c-.62.23-1.15.57-1.59,1.02s-.77,1.01-1,1.68c-.23.67-.35,1.46-.35,2.36v9.21c0,.52-.12.94-.35,1.26-.23.32-.52.53-.87.64-.35.1-.7.1-1.04,0-.35-.1-.64-.32-.87-.64-.23-.32-.35-.74-.35-1.26v-16.17c0-.64.17-1.13.52-1.45.35-.32.75-.48,1.22-.48s.87.16,1.22.48c.35.32.52.81.52,1.45v1.59Z"/><path d="m566.42,116.95h5.22c.31,0,.59,0,.83.02.25.01.44,0,.58-.04s.25-.11.31-.21c.06-.1.07-.28.02-.54-.18-.82-.5-1.54-.95-2.15-.45-.61-1.03-1.07-1.72-1.39-.7-.32-1.48-.48-2.36-.48-1.16,0-2.19.27-3.08.81s-1.59,1.31-2.09,2.3-.75,2.15-.75,3.46c0,1.39.27,2.58.81,3.56.54.98,1.28,1.72,2.22,2.22s2.02.75,3.23.75c.54,0,1.11-.06,1.7-.17.59-.12,1.19-.29,1.8-.52.61-.23,1.22-.52,1.84-.85.57-.33,1.08-.43,1.53-.27.45.15.79.43,1.03.83.23.4.29.83.17,1.3-.12.46-.46.85-1.03,1.16-.8.46-1.6.84-2.4,1.14-.8.3-1.59.52-2.38.66-.79.14-1.54.21-2.26.21-1.8,0-3.44-.4-4.91-1.2-1.47-.8-2.64-1.95-3.52-3.44-.88-1.5-1.31-3.29-1.31-5.38s.41-3.77,1.24-5.28c.83-1.51,1.95-2.68,3.37-3.52,1.42-.84,3.02-1.26,4.8-1.26,1.42,0,2.72.28,3.91.85,1.19.57,2.17,1.36,2.96,2.38.79,1.02,1.31,2.24,1.57,3.66.15.8.18,1.51.08,2.13-.1.62-.36,1.13-.77,1.53-.41.4-.99.7-1.72.91-.73.21-1.64.31-2.73.31h-7.62c-.65,0-1.14-.17-1.47-.52s-.5-.75-.5-1.22.17-.87.5-1.22.83-.52,1.47-.52h2.4Z"/><path d="m591.35,118.15h-9.61c-.65,0-1.14-.17-1.47-.52-.34-.35-.5-.75-.5-1.22s.17-.87.5-1.22c.33-.35.82-.52,1.47-.52h14.7c.67,0,1.17.17,1.49.52s.48.75.48,1.22-.16.87-.48,1.22-.82.52-1.49.52h-5.09Zm-.52-4.29v10.06c0,.65-.17,1.14-.52,1.47-.35.34-.75.5-1.22.5s-.87-.17-1.22-.5c-.35-.33-.52-.82-.52-1.47v-15.09c0-.67.17-1.17.52-1.49.35-.32.75-.48,1.22-.48s.87.16,1.22.48c.35.32.52.82.52,1.49v5.03Z"/><path d="m605.56,112.19v14.58c0,.52-.12.94-.35,1.26-.23.32-.52.53-.87.64-.35.1-.7.1-1.04,0-.35-.1-.64-.32-.87-.64-.23-.32-.35-.74-.35-1.26v-8.43c0-1.42.21-2.71.64-3.89.42-1.17,1.02-2.19,1.8-3.06.77-.86,1.68-1.53,2.71-2.01,1.03-.48,2.14-.72,3.33-.72.93,0,1.8.15,2.63.46.83.31,1.56.79,2.21,1.45.64.66,1.15,1.48,1.51,2.48.36.99.54,2.17.54,3.54v10.17c0,.52-.12.94-.35,1.26-.23.32-.52.53-.87.64-.35.1-.7.1-1.04,0-.35-.1-.64-.32-.87-.64-.23-.32-.35-.74-.35-1.26v-8.43c0-1.42.21-2.71.64-3.89.43-1.17,1.03-2.19,1.8-3.06.77-.86,1.68-1.53,2.71-2.01,1.03-.48,2.14-.72,3.33-.72.93,0,1.8.15,2.63.46.83.31,1.56.79,2.21,1.45s1.15,1.48,1.51,2.48c.36.99.54,2.17.54,3.54v10.17c0,.65-.17,1.14-.52,1.47-.35.33-.75.5-1.22.5s-.87-.17-1.22-.5c-.35-.33-.52-.83-.52-1.47v-10.17c0-1.06-.13-1.91-.41-2.55-.27-.64-.66-1.12-1.16-1.43s-1.12-.46-1.84-.46-1.43.12-2.05.35c-.62.23-1.15.57-1.59,1.02s-.77,1.01-1,1.68c-.23.67-.35,1.46-.35,2.36v9.21c0,.52-.12.94-.35,1.26-.23.32-.52.53-.87.64-.35.1-.7.1-1.04,0-.35-.1-.64-.32-.87-.64-.23-.32-.35-.74-.35-1.26v-10.17c0-1.06-.13-1.91-.41-2.55-.27-.64-.66-1.12-1.16-1.43s-1.12-.46-1.84-.46-1.43.12-2.05.35c-.62.23-1.15.57-1.59,1.02s-.77,1.01-1,1.68c-.23.67-.35,1.46-.35,2.36v9.21c0,.52-.12.94-.35,1.26-.23.32-.52.53-.87.64-.35.1-.7.1-1.04,0-.35-.1-.64-.32-.87-.64-.23-.32-.35-.74-.35-1.26v-16.17c0-.64.17-1.13.52-1.45.35-.32.75-.48,1.22-.48s.87.16,1.22.48c.35.32.52.81.52,1.45v1.59Z" style="fill:#c1272d;"/><path d="m636.95,126.91c-.81-.58-1.53-1.33-2.15-2.26-.54-.8-.97-1.7-1.28-2.71s-.46-2.09-.46-3.25c0-1.93.42-3.66,1.26-5.16.84-1.51,1.99-2.69,3.44-3.56,1.46-.86,3.1-1.3,4.93-1.3s3.51.43,4.97,1.3c1.46.86,2.6,2.05,3.44,3.56.84,1.51,1.26,3.23,1.26,5.16,0,1.13-.15,2.2-.45,3.19-.3.99-.73,1.9-1.3,2.73-.62.95-1.33,1.72-2.13,2.28-.8.57-1.78,1.06-2.94,1.47-.59.21-1.1.19-1.53-.04s-.72-.57-.87-1.01c-.16-.44-.13-.87.08-1.3.21-.43.62-.75,1.24-.99.77-.26,1.4-.56,1.89-.91s.95-.83,1.39-1.45c.36-.54.64-1.15.83-1.82.19-.67.29-1.39.29-2.17,0-1.26-.26-2.39-.79-3.38-.53-.99-1.26-1.77-2.19-2.32-.93-.55-2-.83-3.21-.83s-2.28.28-3.21.83c-.93.55-1.65,1.33-2.17,2.32-.52.99-.77,2.12-.77,3.38,0,.77.1,1.5.29,2.19.19.68.47,1.3.83,1.84.28.41.59.76.91,1.04.32.28.68.53,1.06.73.39.21.81.39,1.28.54.62.23,1.03.56,1.24.99.21.43.23.86.08,1.3-.15.44-.44.77-.87,1.01s-.95.24-1.57.04c-1.08-.39-2.03-.87-2.84-1.45Z"/><path d="m656.43,124.67v-6.02c0-1.96.4-3.69,1.2-5.18.8-1.5,1.9-2.67,3.29-3.52s2.98-1.28,4.76-1.28,3.33.43,4.74,1.3c1.41.86,2.52,2.05,3.35,3.56.83,1.51,1.24,3.24,1.24,5.2,0,1.47-.24,2.82-.72,4.04-.48,1.23-1.14,2.28-1.99,3.17s-1.84,1.58-2.96,2.07c-1.12.49-2.33.73-3.62.73-1.37,0-2.62-.25-3.75-.73-1.13-.49-2.11-1.13-2.94-1.93-.83-.8-1.46-1.67-1.92-2.61-.45-.94-.68-1.86-.68-2.77v-19.26c0-.64.17-1.13.52-1.45.35-.32.75-.48,1.22-.48s.87.16,1.22.48c.35.32.52.81.52,1.45v19.03c0,.54.15,1.1.45,1.66.3.57.71,1.08,1.24,1.55.53.46,1.14.84,1.84,1.14.7.3,1.46.44,2.28.44s1.59-.16,2.3-.48c.71-.32,1.32-.77,1.84-1.35.52-.58.92-1.27,1.22-2.07s.45-1.68.45-2.63-.14-1.83-.43-2.63c-.28-.8-.68-1.5-1.2-2.09-.52-.59-1.13-1.05-1.86-1.37-.72-.32-1.51-.48-2.36-.48-1.16,0-2.17.28-3.04.83-.86.55-1.54,1.32-2.01,2.3-.48.98-.72,2.1-.72,3.37v7.97c0,.65-.17,1.14-.52,1.47-.35.33-.75.5-1.22.5s-.87-.17-1.22-.5c-.35-.33-.52-.83-.52-1.47v-1.95Z"/><path d="m679.17,103.02v-1.2c0-.59.17-1.04.52-1.33.35-.3.75-.44,1.22-.44s.87.15,1.22.44c.35.3.52.74.52,1.33v1.9c0,.59-.17,1.04-.52,1.33-.35.3-.75.44-1.22.44s-.87-.15-1.22-.44c-.35-.3-.52-.74-.52-1.33v-.7Zm0,22.09v-14.51c0-.64.17-1.13.52-1.45.35-.32.75-.48,1.22-.48s.87.16,1.22.48c.35.32.52.81.52,1.45v16.17c0,.65-.17,1.14-.52,1.47-.35.33-.75.5-1.22.5s-.87-.16-1.22-.48c-.35-.32-.52-.82-.52-1.49v-1.66Z"/><path d="m688.11,125.03v-23.6c0-.64.17-1.13.52-1.47.35-.33.75-.5,1.22-.5s.87.17,1.22.5c.35.34.52.83.52,1.47v25.34c0,.65-.17,1.14-.52,1.47-.35.33-.75.5-1.22.5s-.87-.17-1.22-.5c-.35-.33-.52-.83-.52-1.47v-1.74Z"/><path d="m703.31,116.95h5.22c.31,0,.59,0,.83.02.25.01.44,0,.58-.04s.25-.11.31-.21c.06-.1.07-.28.02-.54-.18-.82-.5-1.54-.95-2.15-.45-.61-1.03-1.07-1.72-1.39-.7-.32-1.48-.48-2.36-.48-1.16,0-2.19.27-3.08.81s-1.59,1.31-2.09,2.3-.75,2.15-.75,3.46c0,1.39.27,2.58.81,3.56.54.98,1.28,1.72,2.22,2.22s2.02.75,3.23.75c.54,0,1.11-.06,1.7-.17.59-.12,1.19-.29,1.8-.52.61-.23,1.22-.52,1.84-.85.57-.33,1.08-.43,1.53-.27.45.15.79.43,1.03.83.23.4.29.83.17,1.3-.12.46-.46.85-1.03,1.16-.8.46-1.6.84-2.4,1.14-.8.3-1.59.52-2.38.66-.79.14-1.54.21-2.26.21-1.8,0-3.44-.4-4.91-1.2-1.47-.8-2.64-1.95-3.52-3.44-.88-1.5-1.31-3.29-1.31-5.38s.41-3.77,1.24-5.28c.83-1.51,1.95-2.68,3.37-3.52,1.42-.84,3.02-1.26,4.8-1.26,1.42,0,2.72.28,3.91.85,1.19.57,2.17,1.36,2.96,2.38.79,1.02,1.31,2.24,1.57,3.66.15.8.18,1.51.08,2.13-.1.62-.36,1.13-.77,1.53-.41.4-.99.7-1.72.91-.73.21-1.64.31-2.73.31h-7.62c-.65,0-1.14-.17-1.47-.52s-.5-.75-.5-1.22.17-.87.5-1.22.83-.52,1.47-.52h2.4Z"/></g><g><path d="m364.09,164.59v-23.59c0-.64.17-1.13.52-1.47.35-.33.75-.5,1.22-.5s.87.17,1.22.5c.35.33.52.83.52,1.47v25.34c0,.64-.17,1.13-.52,1.47-.35.33-.75.5-1.22.5s-.87-.17-1.22-.5c-.35-.33-.52-.83-.52-1.47v-1.74Z"/><path d="m390.39,152.25v6.85c0,1.47-.23,2.77-.7,3.91-.46,1.14-1.12,2.1-1.95,2.88-.84.79-1.82,1.39-2.94,1.8-1.12.41-2.34.62-3.66.62s-2.54-.25-3.67-.74c-1.14-.49-2.13-1.19-2.98-2.09-.85-.9-1.51-1.97-1.97-3.19-.46-1.22-.7-2.57-.7-4.04,0-1.96.41-3.69,1.22-5.2.81-1.51,1.92-2.69,3.33-3.54,1.41-.85,2.98-1.28,4.74-1.28,1.32,0,2.53.24,3.66.71,1.12.48,2.1,1.16,2.94,2.05s1.5,1.94,1.97,3.15c.48,1.21.71,2.55.71,4.02v8.59c0,.65-.17,1.13-.52,1.47-.35.33-.75.5-1.22.5s-.87-.17-1.22-.5c-.35-.33-.52-.82-.52-1.47v-8.59c0-1.26-.25-2.38-.73-3.37-.49-.98-1.17-1.74-2.05-2.28-.88-.54-1.88-.81-3.02-.81-.85,0-1.64.16-2.36.48-.72.32-1.33.77-1.84,1.35-.5.58-.9,1.27-1.18,2.07-.28.8-.42,1.68-.42,2.63s.14,1.83.42,2.63.68,1.5,1.2,2.09c.52.59,1.13,1.05,1.86,1.37s1.51.48,2.36.48,1.63-.12,2.34-.35c.71-.23,1.32-.59,1.84-1.06.52-.48.91-1.08,1.18-1.8.27-.72.41-1.56.41-2.51v-8.7c0-.64.17-1.13.52-1.47.35-.33.75-.5,1.22-.5s.87.17,1.22.5c.35.33.52.83.52,1.47v1.86Z"/><path d="m395.46,164.22v-6.01c0-1.96.4-3.69,1.2-5.18.8-1.5,1.9-2.67,3.29-3.52,1.39-.85,2.98-1.28,4.76-1.28s3.33.43,4.74,1.3c1.41.86,2.52,2.05,3.35,3.56.83,1.51,1.24,3.24,1.24,5.2,0,1.47-.24,2.82-.72,4.04-.48,1.23-1.14,2.28-1.99,3.17s-1.84,1.58-2.96,2.07-2.33.74-3.62.74c-1.37,0-2.62-.25-3.75-.74s-2.11-1.13-2.94-1.93c-.83-.8-1.46-1.67-1.92-2.61s-.68-1.86-.68-2.77v-19.26c0-.64.17-1.13.52-1.45.35-.32.75-.48,1.22-.48s.87.16,1.22.48c.35.32.52.81.52,1.45v19.03c0,.54.15,1.1.45,1.66.3.57.71,1.08,1.24,1.55s1.14.84,1.84,1.14c.7.3,1.46.45,2.28.45s1.59-.16,2.3-.48,1.32-.77,1.84-1.35c.52-.58.92-1.27,1.22-2.07.3-.8.45-1.68.45-2.63s-.14-1.83-.43-2.63c-.28-.8-.68-1.5-1.2-2.09-.52-.59-1.13-1.05-1.86-1.37-.72-.32-1.51-.48-2.36-.48-1.16,0-2.17.28-3.04.83-.86.55-1.54,1.32-2.01,2.3-.48.98-.72,2.1-.72,3.37v7.97c0,.65-.17,1.13-.52,1.47-.35.33-.75.5-1.22.5s-.87-.17-1.22-.5c-.35-.33-.52-.82-.52-1.47v-1.95Z"/><path d="m420.89,166.46c-.81-.58-1.53-1.33-2.15-2.26-.54-.8-.97-1.7-1.28-2.71-.31-1-.46-2.09-.46-3.25,0-1.93.42-3.66,1.26-5.16.84-1.51,1.99-2.69,3.44-3.56s3.1-1.3,4.93-1.3,3.51.43,4.97,1.3,2.6,2.05,3.44,3.56c.84,1.51,1.26,3.23,1.26,5.16,0,1.14-.15,2.2-.45,3.19-.3.99-.73,1.9-1.3,2.73-.62.96-1.33,1.72-2.13,2.28-.8.57-1.78,1.06-2.94,1.47-.59.21-1.1.19-1.53-.04s-.72-.57-.87-1.01c-.16-.44-.13-.87.08-1.3.21-.42.62-.75,1.24-.99.77-.26,1.4-.56,1.89-.91.49-.35.95-.83,1.39-1.45.36-.54.64-1.15.83-1.82.19-.67.29-1.39.29-2.17,0-1.26-.26-2.39-.79-3.38-.53-.99-1.26-1.77-2.19-2.32-.93-.55-2-.83-3.21-.83s-2.28.28-3.21.83c-.93.55-1.65,1.33-2.17,2.32-.52.99-.77,2.12-.77,3.38,0,.77.1,1.5.29,2.19.19.68.47,1.3.83,1.84.28.41.59.76.91,1.04.32.28.68.53,1.06.74s.81.39,1.28.54c.62.23,1.03.56,1.24.99.21.43.23.86.08,1.3-.15.44-.44.77-.87,1.01s-.95.25-1.57.04c-1.08-.39-2.03-.87-2.84-1.45Z"/><path d="m447.29,152.08c-.83.25-1.49.64-1.99,1.2s-.87,1.22-1.1,1.99c-.23.77-.35,1.61-.35,2.51v8.55c0,.52-.12.93-.35,1.24-.23.31-.52.52-.87.64-.35.12-.7.12-1.04.02-.35-.1-.64-.32-.87-.64-.23-.32-.35-.74-.35-1.26v-16.01c0-.67.17-1.17.52-1.49.35-.32.75-.48,1.22-.48s.87.17,1.22.5c.35.34.52.83.52,1.47v16.01c0,.52-.12.93-.35,1.24-.23.31-.52.52-.87.64-.35.12-.7.12-1.04.02-.35-.1-.64-.32-.87-.64-.23-.32-.35-.74-.35-1.26v-7.78c0-1.11.14-2.19.41-3.25s.68-2.04,1.22-2.94c.54-.9,1.22-1.68,2.05-2.32.83-.64,1.8-1.11,2.92-1.39,1.12-.28,2.39-.33,3.81-.15.64.1,1.11.35,1.39.74.28.39.39.81.33,1.28-.06.46-.28.84-.66,1.14-.37.3-.88.41-1.53.33-1.19-.18-2.19-.15-3.02.1Z"/><path d="m472.74,152.25v6.85c0,1.47-.23,2.77-.7,3.91-.46,1.14-1.12,2.1-1.95,2.88-.84.79-1.82,1.39-2.94,1.8-1.12.41-2.34.62-3.66.62s-2.54-.25-3.67-.74c-1.14-.49-2.13-1.19-2.98-2.09-.85-.9-1.51-1.97-1.97-3.19-.46-1.22-.7-2.57-.7-4.04,0-1.96.41-3.69,1.22-5.2.81-1.51,1.92-2.69,3.33-3.54,1.41-.85,2.98-1.28,4.74-1.28,1.32,0,2.53.24,3.66.71,1.12.48,2.1,1.16,2.94,2.05s1.5,1.94,1.97,3.15c.48,1.21.71,2.55.71,4.02v8.59c0,.65-.17,1.13-.52,1.47-.35.33-.75.5-1.22.5s-.87-.17-1.22-.5c-.35-.33-.52-.82-.52-1.47v-8.59c0-1.26-.25-2.38-.73-3.37-.49-.98-1.17-1.74-2.05-2.28-.88-.54-1.88-.81-3.02-.81-.85,0-1.64.16-2.36.48-.72.32-1.33.77-1.84,1.35-.5.58-.9,1.27-1.18,2.07-.28.8-.42,1.68-.42,2.63s.14,1.83.42,2.63.68,1.5,1.2,2.09c.52.59,1.13,1.05,1.86,1.37s1.51.48,2.36.48,1.63-.12,2.34-.35c.71-.23,1.32-.59,1.84-1.06.52-.48.91-1.08,1.18-1.8.27-.72.41-1.56.41-2.51v-8.7c0-.64.17-1.13.52-1.47.35-.33.75-.5,1.22-.5s.87.17,1.22.5c.35.33.52.83.52,1.47v1.86Z"/><path d="m484.93,152.1h-7.46c-.65,0-1.14-.17-1.47-.52-.34-.35-.5-.75-.5-1.22s.17-.87.5-1.22c.33-.35.82-.52,1.47-.52h8.59c.64,0,1.13.17,1.47.52.33.35.5.75.5,1.22s-.17.87-.5,1.22c-.33.35-.83.52-1.47.52h-1.12Zm-5.11,12.57v-19.53c0-.64.17-1.13.52-1.47.35-.33.75-.5,1.22-.5s.87.17,1.22.5c.35.33.52.83.52,1.47v21.2c0,.64-.17,1.13-.52,1.47-.35.33-.75.5-1.22.5s-.87-.16-1.22-.48c-.35-.32-.52-.82-.52-1.49v-1.66Z"/><path d="m493.46,166.46c-.81-.58-1.53-1.33-2.15-2.26-.54-.8-.97-1.7-1.28-2.71-.31-1-.46-2.09-.46-3.25,0-1.93.42-3.66,1.26-5.16.84-1.51,1.99-2.69,3.44-3.56s3.1-1.3,4.93-1.3,3.51.43,4.97,1.3,2.6,2.05,3.44,3.56c.84,1.51,1.26,3.23,1.26,5.16,0,1.14-.15,2.2-.45,3.19-.3.99-.73,1.9-1.3,2.73-.62.96-1.33,1.72-2.13,2.28-.8.57-1.78,1.06-2.94,1.47-.59.21-1.1.19-1.53-.04s-.72-.57-.87-1.01c-.16-.44-.13-.87.08-1.3.21-.42.62-.75,1.24-.99.77-.26,1.4-.56,1.89-.91.49-.35.95-.83,1.39-1.45.36-.54.64-1.15.83-1.82.19-.67.29-1.39.29-2.17,0-1.26-.26-2.39-.79-3.38-.53-.99-1.26-1.77-2.19-2.32-.93-.55-2-.83-3.21-.83s-2.28.28-3.21.83c-.93.55-1.65,1.33-2.17,2.32-.52.99-.77,2.12-.77,3.38,0,.77.1,1.5.29,2.19.19.68.47,1.3.83,1.84.28.41.59.76.91,1.04.32.28.68.53,1.06.74s.81.39,1.28.54c.62.23,1.03.56,1.24.99.21.43.23.86.08,1.3-.15.44-.44.77-.87,1.01s-.95.25-1.57.04c-1.08-.39-2.03-.87-2.84-1.45Z"/><path d="m519.86,152.08c-.83.25-1.49.64-1.99,1.2s-.87,1.22-1.1,1.99c-.23.77-.35,1.61-.35,2.51v8.55c0,.52-.12.93-.35,1.24-.23.31-.52.52-.87.64-.35.12-.7.12-1.04.02-.35-.1-.64-.32-.87-.64-.23-.32-.35-.74-.35-1.26v-16.01c0-.67.17-1.17.52-1.49.35-.32.75-.48,1.22-.48s.87.17,1.22.5c.35.34.52.83.52,1.47v16.01c0,.52-.12.93-.35,1.24-.23.31-.52.52-.87.64-.35.12-.7.12-1.04.02-.35-.1-.64-.32-.87-.64-.23-.32-.35-.74-.35-1.26v-7.78c0-1.11.14-2.19.41-3.25s.68-2.04,1.22-2.94c.54-.9,1.22-1.68,2.05-2.32.83-.64,1.8-1.11,2.92-1.39,1.12-.28,2.39-.33,3.81-.15.64.1,1.11.35,1.39.74.28.39.39.81.33,1.28-.06.46-.28.84-.66,1.14-.37.3-.88.41-1.53.33-1.19-.18-2.19-.15-3.02.1Z"/><path d="m531.13,171.09c.14-.31.28-.62.43-.93s.28-.61.43-.91c.14-.3.28-.6.41-.91.1-.26.21-.5.31-.73.1-.23.21-.46.31-.68s.19-.43.27-.64c.18-.39.24-.78.19-1.18-.05-.4-.18-.83-.39-1.3-.21-.46-.46-.98-.77-1.55s-.63-1.2-.97-1.9c-.26-.54-.57-1.19-.93-1.95s-.74-1.57-1.14-2.44c-.4-.86-.81-1.73-1.22-2.61-.41-.88-.8-1.7-1.16-2.48-.26-.59-.3-1.11-.12-1.55.18-.44.48-.75.89-.95.41-.19.84-.22,1.3-.08s.82.51,1.1,1.1c.36.8.74,1.63,1.14,2.49.4.86.8,1.72,1.2,2.57.4.85.77,1.65,1.12,2.4.35.75.65,1.39.91,1.93.62,1.26,1.13,2.32,1.53,3.15.4.84.68,1.56.85,2.17.17.61.22,1.18.15,1.72-.06.54-.25,1.16-.56,1.86-.08.18-.17.39-.29.62-.12.23-.23.48-.33.74-.1.26-.21.5-.31.73l-.39.93c-.13.31-.26.62-.41.93s-.28.61-.41.91c-.13.3-.26.59-.39.87-.23.46-.52.79-.87.99-.35.19-.7.26-1.04.21-.35-.05-.66-.2-.93-.45s-.44-.56-.52-.95c-.08-.39-.01-.81.19-1.28.13-.28.26-.58.41-.89Zm12.26-18.8c-.22.49-.44.98-.66,1.47-.22.49-.43.96-.62,1.39s-.37.83-.52,1.16c-.54,1.24-1.14,2.58-1.8,4.02-.66,1.44-1.28,2.82-1.88,4.14-.59,1.32-1.08,2.4-1.47,3.25-.1.23-.21.47-.31.71-.1.25-.21.48-.33.72s-.23.48-.33.74c-.13.31-.26.61-.39.91-.13.3-.26.59-.39.89-.13.3-.26.59-.41.89-.14.3-.28.59-.41.87-.23.46-.52.79-.87.99-.35.19-.7.26-1.04.21-.35-.05-.66-.2-.93-.45s-.44-.56-.52-.95c-.08-.39-.01-.81.19-1.28.13-.28.26-.58.41-.89.14-.31.29-.62.45-.93.15-.31.3-.62.44-.93s.28-.61.41-.89c.1-.26.2-.49.29-.7.09-.21.18-.41.27-.62.09-.21.19-.44.29-.7.26-.59.59-1.33,1-2.22s.86-1.86,1.33-2.92c.48-1.06.96-2.13,1.45-3.21s.94-2.1,1.35-3.06c.21-.44.44-.97.71-1.59.27-.62.56-1.27.87-1.95.31-.68.59-1.32.85-1.92.26-.59.61-.97,1.06-1.12.45-.16.89-.14,1.32.04.43.18.74.49.93.93s.15.95-.14,1.55c-.21.46-.42.94-.64,1.43Z"/></g></g></svg>